<svg xmlns="http://www.w3.org/2000/svg" xmlns:xlink="http://www.w3.org/1999/xlink" width="150" zoomAndPan="magnify" viewBox="0 0 112.5 60" height="80" preserveAspectRatio="xMidYMid meet" version="1.0"><defs><g/><clipPath id="e084e862f4"><path d="M 8 9.671875 L 95 9.671875 L 95 26.921875 L 8 26.921875 Z M 8 9.671875 " clip-rule="nonzero"/></clipPath><clipPath id="c9db91d1cf"><path d="M 13 40.667969 L 31 40.667969 L 31 53.839844 L 13 53.839844 Z M 13 40.667969 " clip-rule="nonzero"/></clipPath><clipPath id="f704032ef4"><path d="M 19 40.667969 L 35 40.667969 L 35 53.839844 L 19 53.839844 Z M 19 40.667969 " clip-rule="nonzero"/></clipPath><clipPath id="c1edf4520a"><path d="M 44 40.667969 L 49 40.667969 L 49 53.839844 L 44 53.839844 Z M 44 40.667969 " clip-rule="nonzero"/></clipPath><clipPath id="d53ffabb94"><path d="M 26 40.667969 L 37 40.667969 L 37 53.839844 L 26 53.839844 Z M 26 40.667969 " clip-rule="nonzero"/></clipPath><clipPath id="2e5fbde256"><path d="M 7.292969 40.667969 L 26 40.667969 L 26 53.839844 L 7.292969 53.839844 Z M 7.292969 40.667969 " clip-rule="nonzero"/></clipPath><clipPath id="e25b15c004"><path d="M 32 40.667969 L 42 40.667969 L 42 53.839844 L 32 53.839844 Z M 32 40.667969 " clip-rule="nonzero"/></clipPath><clipPath id="7fd72d0a20"><path d="M 51 40.667969 L 52 40.667969 L 52 53.839844 L 51 53.839844 Z M 51 40.667969 " clip-rule="nonzero"/></clipPath><clipPath id="d4dc7e0ebf"><path d="M 38 40.667969 L 46 40.667969 L 46 53.839844 L 38 53.839844 Z M 38 40.667969 " clip-rule="nonzero"/></clipPath><clipPath id="df822ebfeb"><path d="M 53 40.667969 L 58 40.667969 L 58 53.839844 L 53 53.839844 Z M 53 40.667969 " clip-rule="nonzero"/></clipPath><clipPath id="a8c674fa95"><path d="M 57 40.667969 L 65 40.667969 L 65 53.839844 L 57 53.839844 Z M 57 40.667969 " clip-rule="nonzero"/></clipPath><clipPath id="4f37808ece"><path d="M 72 40.667969 L 90 40.667969 L 90 53.839844 L 72 53.839844 Z M 72 40.667969 " clip-rule="nonzero"/></clipPath><clipPath id="6d0264d3ec"><path d="M 62 40.667969 L 71 40.667969 L 71 53.839844 L 62 53.839844 Z M 62 40.667969 " clip-rule="nonzero"/></clipPath><clipPath id="e73f73078c"><path d="M 65 40.667969 L 77 40.667969 L 77 53.839844 L 65 53.839844 Z M 65 40.667969 " clip-rule="nonzero"/></clipPath><clipPath id="fbfc2eac43"><path d="M 76 40.667969 L 95.445312 40.667969 L 95.445312 53.839844 L 76 53.839844 Z M 76 40.667969 " clip-rule="nonzero"/></clipPath><clipPath id="46f32429be"><path d="M 68 40.667969 L 83 40.667969 L 83 53.839844 L 68 53.839844 Z M 68 40.667969 " clip-rule="nonzero"/></clipPath><clipPath id="2674c9004b"><path d="M 96 17 L 106 17 L 106 54 L 96 54 Z M 96 17 " clip-rule="nonzero"/></clipPath><clipPath id="2bbb09a5f5"><path d="M 119.167969 27.027344 L 102.132812 53.953125 L 84.925781 43.066406 L 101.960938 16.140625 Z M 119.167969 27.027344 " clip-rule="nonzero"/></clipPath><clipPath id="6d5867dedc"><path d="M 119.167969 27.027344 L 102.132812 53.953125 L 84.925781 43.066406 L 101.960938 16.140625 Z M 119.167969 27.027344 " clip-rule="nonzero"/></clipPath><clipPath id="752cb40e92"><path d="M 119.167969 27.027344 L 102.132812 53.953125 L 84.925781 43.066406 L 101.960938 16.140625 Z M 119.167969 27.027344 " clip-rule="nonzero"/></clipPath><clipPath id="87e994c049"><path d="M 119.160156 27.039062 L 102.144531 53.9375 L 84.933594 43.050781 L 101.953125 16.152344 Z M 119.160156 27.039062 " clip-rule="nonzero"/></clipPath><clipPath id="61ceba3f5d"><path d="M 76.070312 2.355469 L 97 2.355469 L 97 23.914062 L 76.070312 23.914062 Z M 76.070312 2.355469 " clip-rule="nonzero"/></clipPath></defs><g fill="#048aa2" fill-opacity="1"><g transform="translate(8.143133, 38.117914)"><g><path d="M 5.1875 -11.46875 L 4.96875 -11.46875 C 3.945312 -11.46875 3.148438 -11.207031 2.578125 -10.6875 C 2.003906 -10.175781 1.71875 -9.269531 1.71875 -7.96875 C 1.71875 -7.539062 1.753906 -7.242188 1.828125 -7.078125 C 1.910156 -6.910156 1.953125 -6.816406 1.953125 -6.796875 C 1.328125 -6.796875 0.863281 -6.925781 0.5625 -7.1875 C 0.257812 -7.445312 0.109375 -7.875 0.109375 -8.46875 C 0.109375 -9.289062 0.304688 -10.039062 0.703125 -10.71875 C 1.109375 -11.394531 1.753906 -11.941406 2.640625 -12.359375 C 3.523438 -12.773438 4.648438 -12.984375 6.015625 -12.984375 C 6.773438 -12.984375 7.59375 -12.910156 8.46875 -12.765625 C 9.207031 -12.640625 9.867188 -12.578125 10.453125 -12.578125 C 11.191406 -12.578125 11.859375 -12.695312 12.453125 -12.9375 C 12.429688 -12.1875 12.238281 -11.632812 11.875 -11.28125 C 11.519531 -10.925781 10.992188 -10.75 10.296875 -10.75 C 9.921875 -10.75 9.546875 -10.773438 9.171875 -10.828125 C 8.804688 -10.890625 8.285156 -10.988281 7.609375 -11.125 L 5.21875 0 L 2.71875 0 Z M 5.1875 -11.46875 "/></g></g></g><g fill="#048aa2" fill-opacity="1"><g transform="translate(16.478992, 38.117914)"><g><path d="M 6.25 0.109375 C 5.550781 0.109375 5.035156 -0.078125 4.703125 -0.453125 C 4.367188 -0.828125 4.203125 -1.296875 4.203125 -1.859375 C 4.203125 -2.097656 4.234375 -2.367188 4.296875 -2.671875 C 4.359375 -2.984375 4.421875 -3.28125 4.484375 -3.5625 C 4.546875 -3.851562 4.585938 -4.039062 4.609375 -4.125 C 4.703125 -4.53125 4.785156 -4.925781 4.859375 -5.3125 C 4.941406 -5.707031 4.984375 -6.023438 4.984375 -6.265625 C 4.984375 -6.859375 4.773438 -7.15625 4.359375 -7.15625 C 4.066406 -7.15625 3.800781 -7.003906 3.5625 -6.703125 C 3.332031 -6.410156 3.148438 -6.03125 3.015625 -5.5625 L 1.84375 0 L -0.65625 0 L 1.859375 -11.78125 L 4.421875 -12.125 L 3.484375 -7.765625 C 4.054688 -8.410156 4.734375 -8.734375 5.515625 -8.734375 C 6.097656 -8.734375 6.5625 -8.570312 6.90625 -8.25 C 7.257812 -7.925781 7.4375 -7.4375 7.4375 -6.78125 C 7.4375 -6.4375 7.394531 -6.0625 7.3125 -5.65625 C 7.226562 -5.25 7.113281 -4.75 6.96875 -4.15625 C 6.875 -3.800781 6.789062 -3.453125 6.71875 -3.109375 C 6.644531 -2.765625 6.609375 -2.492188 6.609375 -2.296875 C 6.609375 -2.066406 6.65625 -1.890625 6.75 -1.765625 C 6.851562 -1.640625 7.035156 -1.578125 7.296875 -1.578125 C 7.640625 -1.578125 7.914062 -1.703125 8.125 -1.953125 C 8.332031 -2.203125 8.539062 -2.585938 8.75 -3.109375 L 9.484375 -3.109375 C 9.054688 -1.835938 8.5625 -0.984375 8 -0.546875 C 7.4375 -0.109375 6.851562 0.109375 6.25 0.109375 Z M 6.25 0.109375 "/></g></g></g><g fill="#048aa2" fill-opacity="1"><g transform="translate(25.23078, 38.117914)"><g><path d="M 2.484375 0.109375 C 1.628906 0.109375 0.960938 -0.113281 0.484375 -0.5625 C 0.015625 -1.007812 -0.21875 -1.707031 -0.21875 -2.65625 C -0.21875 -3.445312 -0.0664062 -4.320312 0.234375 -5.28125 C 0.546875 -6.238281 1.054688 -7.066406 1.765625 -7.765625 C 2.472656 -8.460938 3.367188 -8.8125 4.453125 -8.8125 C 5.722656 -8.8125 6.359375 -8.257812 6.359375 -7.15625 C 6.359375 -6.507812 6.171875 -5.914062 5.796875 -5.375 C 5.429688 -4.832031 4.941406 -4.394531 4.328125 -4.0625 C 3.710938 -3.726562 3.0625 -3.539062 2.375 -3.5 C 2.351562 -3.15625 2.34375 -2.925781 2.34375 -2.8125 C 2.34375 -2.238281 2.4375 -1.851562 2.625 -1.65625 C 2.820312 -1.457031 3.144531 -1.359375 3.59375 -1.359375 C 4.207031 -1.359375 4.738281 -1.5 5.1875 -1.78125 C 5.632812 -2.070312 6.125 -2.515625 6.65625 -3.109375 L 7.25 -3.109375 C 5.957031 -0.960938 4.367188 0.109375 2.484375 0.109375 Z M 2.515625 -4.328125 C 2.941406 -4.347656 3.347656 -4.5 3.734375 -4.78125 C 4.117188 -5.0625 4.429688 -5.414062 4.671875 -5.84375 C 4.910156 -6.269531 5.03125 -6.71875 5.03125 -7.1875 C 5.03125 -7.664062 4.882812 -7.90625 4.59375 -7.90625 C 4.175781 -7.90625 3.765625 -7.539062 3.359375 -6.8125 C 2.960938 -6.082031 2.679688 -5.253906 2.515625 -4.328125 Z M 2.515625 -4.328125 "/></g></g></g><g fill="#048aa2" fill-opacity="1"><g transform="translate(31.885603, 38.117914)"><g/></g></g><g fill="#048aa2" fill-opacity="1"><g transform="translate(35.646273, 38.117914)"><g><path d="M 4.25 -11.78125 C 3.46875 -11.457031 2.863281 -10.972656 2.4375 -10.328125 C 2.019531 -9.679688 1.8125 -8.898438 1.8125 -7.984375 C 1.8125 -7.554688 1.851562 -7.257812 1.9375 -7.09375 C 2.019531 -6.925781 2.0625 -6.832031 2.0625 -6.8125 C 1.4375 -6.8125 0.96875 -6.941406 0.65625 -7.203125 C 0.351562 -7.460938 0.203125 -7.890625 0.203125 -8.484375 C 0.203125 -9.222656 0.503906 -9.941406 1.109375 -10.640625 C 1.722656 -11.347656 2.503906 -11.914062 3.453125 -12.34375 C 4.398438 -12.78125 5.347656 -13 6.296875 -13 C 6.453125 -13 6.679688 -12.988281 6.984375 -12.96875 L 5.875 -7.796875 L 8.421875 -7.796875 L 9.53125 -12.96875 L 12.03125 -12.96875 L 9.265625 0 L 6.78125 0 L 8.15625 -6.515625 L 5.609375 -6.515625 L 4.234375 0 L 1.734375 0 Z M 4.25 -11.78125 "/></g></g></g><g fill="#048aa2" fill-opacity="1"><g transform="translate(47.170903, 38.117914)"><g><path d="M 2.53125 0.0625 C 1.675781 0.0625 1 -0.15625 0.5 -0.59375 C 0 -1.03125 -0.25 -1.722656 -0.25 -2.671875 C -0.25 -3.453125 -0.0859375 -4.320312 0.234375 -5.28125 C 0.566406 -6.238281 1.085938 -7.066406 1.796875 -7.765625 C 2.515625 -8.460938 3.414062 -8.8125 4.5 -8.8125 C 5.976562 -8.8125 6.71875 -7.890625 6.71875 -6.046875 L 6.71875 -6.03125 C 6.757812 -6.019531 6.820312 -6.015625 6.90625 -6.015625 C 7.289062 -6.015625 7.726562 -6.113281 8.21875 -6.3125 C 8.71875 -6.519531 9.171875 -6.765625 9.578125 -7.046875 L 9.734375 -6.578125 C 9.398438 -6.222656 8.960938 -5.921875 8.421875 -5.671875 C 7.890625 -5.421875 7.304688 -5.242188 6.671875 -5.140625 C 6.578125 -4.085938 6.335938 -3.171875 5.953125 -2.390625 C 5.578125 -1.609375 5.085938 -1.003906 4.484375 -0.578125 C 3.890625 -0.148438 3.238281 0.0625 2.53125 0.0625 Z M 3.21875 -1.484375 C 3.5 -1.484375 3.773438 -1.640625 4.046875 -1.953125 C 4.328125 -2.273438 4.570312 -2.710938 4.78125 -3.265625 C 4.988281 -3.816406 5.140625 -4.425781 5.234375 -5.09375 C 4.921875 -5.164062 4.765625 -5.410156 4.765625 -5.828125 C 4.765625 -6.296875 4.941406 -6.609375 5.296875 -6.765625 C 5.273438 -7.140625 5.21875 -7.398438 5.125 -7.546875 C 5.03125 -7.691406 4.867188 -7.765625 4.640625 -7.765625 C 4.265625 -7.765625 3.894531 -7.484375 3.53125 -6.921875 C 3.175781 -6.367188 2.890625 -5.707031 2.671875 -4.9375 C 2.453125 -4.164062 2.34375 -3.484375 2.34375 -2.890625 C 2.34375 -2.335938 2.40625 -1.960938 2.53125 -1.765625 C 2.65625 -1.578125 2.882812 -1.484375 3.21875 -1.484375 Z M 3.21875 -1.484375 "/></g></g></g><g fill="#048aa2" fill-opacity="1"><g transform="translate(54.778889, 38.117914)"><g><path d="M 1.71875 0.109375 C 1.164062 0.109375 0.71875 -0.0625 0.375 -0.40625 C 0.03125 -0.757812 -0.140625 -1.28125 -0.140625 -1.96875 C -0.140625 -2.257812 -0.09375 -2.640625 0 -3.109375 L 1.859375 -11.78125 L 4.421875 -12.125 L 2.421875 -2.765625 C 2.378906 -2.597656 2.359375 -2.414062 2.359375 -2.21875 C 2.359375 -1.988281 2.410156 -1.820312 2.515625 -1.71875 C 2.628906 -1.625 2.8125 -1.578125 3.0625 -1.578125 C 3.394531 -1.578125 3.707031 -1.71875 4 -2 C 4.289062 -2.28125 4.5 -2.648438 4.625 -3.109375 L 5.359375 -3.109375 C 4.929688 -1.859375 4.378906 -1.007812 3.703125 -0.5625 C 3.035156 -0.113281 2.375 0.109375 1.71875 0.109375 Z M 1.71875 0.109375 "/></g></g></g><g fill="#048aa2" fill-opacity="1"><g transform="translate(59.406072, 38.117914)"><g><path d="M 2.890625 -9.59375 C 2.515625 -9.59375 2.191406 -9.722656 1.921875 -9.984375 C 1.660156 -10.253906 1.53125 -10.582031 1.53125 -10.96875 C 1.53125 -11.351562 1.660156 -11.679688 1.921875 -11.953125 C 2.191406 -12.222656 2.515625 -12.359375 2.890625 -12.359375 C 3.273438 -12.359375 3.601562 -12.222656 3.875 -11.953125 C 4.144531 -11.679688 4.28125 -11.351562 4.28125 -10.96875 C 4.28125 -10.582031 4.144531 -10.253906 3.875 -9.984375 C 3.601562 -9.722656 3.273438 -9.59375 2.890625 -9.59375 Z M 1.71875 0.109375 C 1.164062 0.109375 0.71875 -0.0625 0.375 -0.40625 C 0.03125 -0.757812 -0.140625 -1.28125 -0.140625 -1.96875 C -0.140625 -2.257812 -0.09375 -2.640625 0 -3.109375 L 1.171875 -8.65625 L 3.671875 -8.65625 L 2.421875 -2.765625 C 2.378906 -2.597656 2.359375 -2.414062 2.359375 -2.21875 C 2.359375 -1.988281 2.410156 -1.820312 2.515625 -1.71875 C 2.628906 -1.625 2.8125 -1.578125 3.0625 -1.578125 C 3.394531 -1.578125 3.707031 -1.71875 4 -2 C 4.289062 -2.28125 4.5 -2.648438 4.625 -3.109375 L 5.359375 -3.109375 C 4.929688 -1.859375 4.378906 -1.007812 3.703125 -0.5625 C 3.035156 -0.113281 2.375 0.109375 1.71875 0.109375 Z M 1.71875 0.109375 "/></g></g></g><g fill="#048aa2" fill-opacity="1"><g transform="translate(64.033256, 38.117914)"><g><path d="M 2.078125 0.109375 C 1.421875 0.109375 0.875 -0.113281 0.4375 -0.5625 C 0 -1.019531 -0.21875 -1.726562 -0.21875 -2.6875 C -0.21875 -3.539062 -0.0507812 -4.4375 0.28125 -5.375 C 0.625 -6.320312 1.132812 -7.117188 1.8125 -7.765625 C 2.488281 -8.421875 3.296875 -8.75 4.234375 -8.75 C 4.703125 -8.75 5.050781 -8.664062 5.28125 -8.5 C 5.507812 -8.34375 5.625 -8.128906 5.625 -7.859375 L 5.625 -7.796875 L 6.484375 -11.78125 L 9.046875 -12.125 L 7.046875 -2.765625 C 7.003906 -2.597656 6.984375 -2.414062 6.984375 -2.21875 C 6.984375 -1.988281 7.035156 -1.820312 7.140625 -1.71875 C 7.253906 -1.625 7.4375 -1.578125 7.6875 -1.578125 C 8.007812 -1.578125 8.289062 -1.710938 8.53125 -1.984375 C 8.769531 -2.265625 8.957031 -2.640625 9.09375 -3.109375 L 9.828125 -3.109375 C 9.117188 -1.035156 7.957031 0 6.34375 0 C 5.863281 0 5.476562 -0.125 5.1875 -0.375 C 4.894531 -0.632812 4.710938 -1.003906 4.640625 -1.484375 C 4.335938 -1.023438 3.972656 -0.644531 3.546875 -0.34375 C 3.128906 -0.0390625 2.640625 0.109375 2.078125 0.109375 Z M 3.203125 -1.578125 C 3.484375 -1.578125 3.765625 -1.703125 4.046875 -1.953125 C 4.328125 -2.210938 4.519531 -2.566406 4.625 -3.015625 L 4.625 -3.109375 L 5.46875 -7.0625 C 5.363281 -7.46875 5.128906 -7.671875 4.765625 -7.671875 C 4.304688 -7.671875 3.890625 -7.398438 3.515625 -6.859375 C 3.148438 -6.328125 2.863281 -5.679688 2.65625 -4.921875 C 2.445312 -4.171875 2.34375 -3.503906 2.34375 -2.921875 C 2.34375 -2.347656 2.425781 -1.976562 2.59375 -1.8125 C 2.757812 -1.65625 2.960938 -1.578125 3.203125 -1.578125 Z M 3.203125 -1.578125 "/></g></g></g><g fill="#048aa2" fill-opacity="1"><g transform="translate(73.131647, 38.117914)"><g><path d="M 2.078125 0.109375 C 1.421875 0.109375 0.875 -0.113281 0.4375 -0.5625 C 0 -1.019531 -0.21875 -1.726562 -0.21875 -2.6875 C -0.21875 -3.539062 -0.0507812 -4.4375 0.28125 -5.375 C 0.625 -6.320312 1.132812 -7.117188 1.8125 -7.765625 C 2.488281 -8.421875 3.296875 -8.75 4.234375 -8.75 C 4.703125 -8.75 5.050781 -8.664062 5.28125 -8.5 C 5.507812 -8.34375 5.625 -8.128906 5.625 -7.859375 L 5.625 -7.75 L 5.828125 -8.65625 L 8.3125 -8.65625 L 7.0625 -2.765625 C 7.019531 -2.597656 7 -2.414062 7 -2.21875 C 7 -1.71875 7.238281 -1.46875 7.71875 -1.46875 C 8.039062 -1.46875 8.316406 -1.617188 8.546875 -1.921875 C 8.785156 -2.222656 8.972656 -2.617188 9.109375 -3.109375 L 9.84375 -3.109375 C 9.414062 -1.859375 8.882812 -1.007812 8.25 -0.5625 C 7.625 -0.113281 6.992188 0.109375 6.359375 0.109375 C 5.867188 0.109375 5.476562 -0.0234375 5.1875 -0.296875 C 4.894531 -0.566406 4.71875 -0.960938 4.65625 -1.484375 C 4.320312 -1.015625 3.945312 -0.628906 3.53125 -0.328125 C 3.125 -0.0351562 2.640625 0.109375 2.078125 0.109375 Z M 3.203125 -1.578125 C 3.492188 -1.578125 3.78125 -1.710938 4.0625 -1.984375 C 4.34375 -2.253906 4.535156 -2.628906 4.640625 -3.109375 L 5.46875 -7.015625 C 5.46875 -7.171875 5.410156 -7.316406 5.296875 -7.453125 C 5.179688 -7.597656 5.003906 -7.671875 4.765625 -7.671875 C 4.304688 -7.671875 3.890625 -7.398438 3.515625 -6.859375 C 3.148438 -6.328125 2.863281 -5.679688 2.65625 -4.921875 C 2.445312 -4.171875 2.34375 -3.503906 2.34375 -2.921875 C 2.34375 -2.347656 2.425781 -1.976562 2.59375 -1.8125 C 2.757812 -1.65625 2.960938 -1.578125 3.203125 -1.578125 Z M 3.203125 -1.578125 "/></g></g></g><g fill="#048aa2" fill-opacity="1"><g transform="translate(82.247369, 38.117914)"><g><path d="M 2.703125 4.328125 C 2.148438 4.328125 1.6875 4.179688 1.3125 3.890625 C 0.945312 3.609375 0.765625 3.195312 0.765625 2.65625 C 0.765625 1.988281 1.03125 1.457031 1.5625 1.0625 C 2.09375 0.664062 2.769531 0.332031 3.59375 0.0625 L 3.796875 -0.859375 C 3.460938 -0.492188 3.117188 -0.238281 2.765625 -0.09375 C 2.421875 0.0390625 2.070312 0.109375 1.71875 0.109375 C 1.164062 0.109375 0.71875 -0.0625 0.375 -0.40625 C 0.03125 -0.757812 -0.140625 -1.28125 -0.140625 -1.96875 C -0.140625 -2.257812 -0.09375 -2.640625 0 -3.109375 L 1.171875 -8.65625 L 3.671875 -8.65625 L 2.421875 -2.765625 C 2.390625 -2.628906 2.375 -2.488281 2.375 -2.34375 C 2.375 -1.832031 2.546875 -1.578125 2.890625 -1.578125 C 3.191406 -1.578125 3.457031 -1.707031 3.6875 -1.96875 C 3.914062 -2.226562 4.101562 -2.570312 4.25 -3 L 5.453125 -8.65625 L 7.953125 -8.65625 L 6.234375 -0.625 C 6.785156 -0.8125 7.226562 -1.085938 7.5625 -1.453125 C 7.90625 -1.828125 8.191406 -2.378906 8.421875 -3.109375 L 9.15625 -3.109375 C 8.84375 -2.078125 8.421875 -1.320312 7.890625 -0.84375 C 7.359375 -0.363281 6.753906 -0.0351562 6.078125 0.140625 L 5.828125 1.390625 C 5.585938 2.503906 5.1875 3.269531 4.625 3.6875 C 4.0625 4.113281 3.421875 4.328125 2.703125 4.328125 Z M 2.296875 2.984375 C 2.492188 2.984375 2.6875 2.847656 2.875 2.578125 C 3.0625 2.316406 3.207031 1.9375 3.3125 1.4375 L 3.40625 0.9375 C 2.28125 1.351562 1.71875 1.84375 1.71875 2.40625 C 1.71875 2.5625 1.769531 2.695312 1.875 2.8125 C 1.976562 2.925781 2.117188 2.984375 2.296875 2.984375 Z M 2.296875 2.984375 "/></g></g></g><g fill="#048aa2" fill-opacity="1"><g transform="translate(90.669873, 38.117914)"><g><path d="M 1.96875 0.109375 C 1.414062 0.109375 0.945312 0.00390625 0.5625 -0.203125 C 0.1875 -0.421875 -0.0859375 -0.703125 -0.265625 -1.046875 C -0.453125 -1.390625 -0.546875 -1.742188 -0.546875 -2.109375 C -0.546875 -2.492188 -0.457031 -2.828125 -0.28125 -3.109375 C -0.101562 -3.390625 0.109375 -3.59375 0.359375 -3.71875 C 0.816406 -4.53125 1.210938 -5.347656 1.546875 -6.171875 C 1.878906 -7.003906 2.195312 -7.898438 2.5 -8.859375 L 5.0625 -9.203125 C 5.113281 -7.722656 5.210938 -6.125 5.359375 -4.40625 C 5.410156 -3.707031 5.4375 -3.203125 5.4375 -2.890625 C 5.4375 -2.628906 5.414062 -2.410156 5.375 -2.234375 C 5.914062 -2.546875 6.332031 -2.835938 6.625 -3.109375 L 7.34375 -3.109375 C 6.601562 -2.242188 5.722656 -1.519531 4.703125 -0.9375 C 4.359375 -0.582031 3.941406 -0.316406 3.453125 -0.140625 C 2.960938 0.0234375 2.46875 0.109375 1.96875 0.109375 Z M 1.421875 -1.265625 C 1.847656 -1.265625 2.203125 -1.390625 2.484375 -1.640625 C 2.773438 -1.898438 2.921875 -2.3125 2.921875 -2.875 C 2.921875 -3.21875 2.890625 -3.703125 2.828125 -4.328125 C 2.710938 -5.648438 2.632812 -6.535156 2.59375 -6.984375 C 2.320312 -6.066406 1.859375 -4.972656 1.203125 -3.703125 C 1.460938 -3.566406 1.59375 -3.367188 1.59375 -3.109375 C 1.59375 -2.878906 1.519531 -2.675781 1.375 -2.5 C 1.226562 -2.332031 1.046875 -2.25 0.828125 -2.25 C 0.585938 -2.25 0.429688 -2.328125 0.359375 -2.484375 C 0.359375 -2.066406 0.441406 -1.757812 0.609375 -1.5625 C 0.773438 -1.363281 1.046875 -1.265625 1.421875 -1.265625 Z M 1.421875 -1.265625 "/></g></g></g><g clip-path="url(#e084e862f4)"><path fill="#000000" d="M 94.519531 24.898438 C 94.496094 23.714844 94.464844 22.503906 94.367188 21.320312 C 94.25 20.089844 94.066406 18.921875 93.710938 17.730469 C 93.355469 16.566406 92.863281 15.382812 92.261719 14.339844 C 91.707031 13.378906 91.0625 12.566406 90.203125 11.890625 C 89.308594 11.179688 88.261719 10.660156 87.164062 10.316406 C 86.03125 9.960938 84.738281 9.742188 83.535156 9.707031 C 82.335938 9.660156 81.324219 9.832031 80.203125 10.214844 C 78.9375 10.652344 77.632812 11.292969 76.488281 11.984375 C 75.464844 12.613281 74.535156 13.339844 73.554688 14.03125 C 72.816406 14.550781 72.003906 15.0625 71.175781 15.410156 C 70.546875 15.679688 69.929688 15.816406 69.246094 15.78125 C 68.488281 15.746094 67.679688 15.527344 66.960938 15.308594 C 66.046875 15.023438 65.136719 14.699219 64.207031 14.449219 C 63.160156 14.171875 62.066406 13.953125 60.984375 13.921875 C 59.925781 13.898438 58.824219 14.035156 57.824219 14.414062 C 56.796875 14.789062 56.019531 15.40625 55.375 16.300781 C 54.71875 17.210938 54.171875 18.429688 53.84375 19.496094 C 53.707031 19.933594 53.605469 20.371094 53.535156 20.816406 C 53.503906 21.035156 53.480469 21.238281 53.453125 21.445312 C 53.167969 21.476562 52.707031 21.492188 52.539062 21.5 C 51.355469 21.546875 50.15625 21.554688 48.972656 21.566406 C 42.367188 21.683594 35.753906 21.800781 29.160156 21.910156 C 27.667969 21.929688 26.171875 21.957031 24.6875 21.964844 C 24.46875 21.964844 24.261719 21.976562 24.058594 21.964844 C 24.011719 21.964844 23.976562 21.964844 23.933594 21.964844 C 23.765625 21.945312 23.601562 21.863281 23.441406 21.792969 C 23.027344 21.59375 22.613281 21.390625 22.199219 21.199219 C 22.144531 21.175781 22.09375 21.148438 22.035156 21.128906 C 21.792969 21.039062 21.546875 21.011719 21.289062 20.992188 C 20.726562 20.945312 20.140625 20.925781 19.566406 20.902344 L 18.757812 20.871094 C 18.757812 20.847656 18.765625 20.835938 18.765625 20.820312 L 18.765625 18.960938 C 19.152344 18.757812 19.421875 18.351562 19.421875 17.878906 C 19.421875 17.195312 18.867188 16.648438 18.191406 16.648438 C 17.507812 16.648438 16.957031 17.203125 16.957031 17.878906 C 16.957031 18.351562 17.226562 18.757812 17.617188 18.960938 L 17.617188 20.820312 C 16.246094 20.753906 14.886719 20.683594 13.527344 20.625 C 13.53125 20.582031 13.539062 20.542969 13.539062 20.492188 L 13.539062 18.378906 C 13.929688 18.175781 14.195312 17.769531 14.195312 17.300781 C 14.195312 16.617188 13.640625 16.066406 12.964844 16.066406 C 12.28125 16.066406 11.734375 16.621094 11.734375 17.300781 C 11.734375 17.769531 12 18.175781 12.390625 18.378906 L 12.390625 20.492188 C 12.390625 20.515625 12.398438 20.535156 12.398438 20.5625 L 12.261719 20.554688 L 11.363281 20.519531 C 10.789062 20.488281 10.203125 20.453125 9.640625 20.453125 C 9.285156 20.453125 8.902344 20.472656 8.722656 20.828125 C 8.675781 20.910156 8.65625 20.992188 8.640625 21.082031 C 8.621094 21.320312 8.628906 21.554688 8.554688 21.792969 C 8.464844 22.058594 8.265625 22.320312 8.148438 22.601562 C 7.980469 22.976562 7.980469 23.3125 8.09375 23.714844 C 8.175781 24.023438 8.335938 24.335938 8.382812 24.660156 C 8.429688 24.945312 8.367188 25.28125 8.328125 25.582031 C 8.28125 25.890625 8.5 26.175781 8.8125 26.226562 C 9.121094 26.28125 9.40625 26.0625 9.46875 25.753906 C 9.523438 25.328125 9.585938 24.910156 9.515625 24.488281 C 9.460938 24.085938 9.3125 23.777344 9.210938 23.394531 C 9.160156 23.257812 9.15625 23.1875 9.210938 23.058594 C 9.296875 22.851562 9.441406 22.65625 9.53125 22.449219 C 9.578125 22.359375 9.621094 22.25 9.652344 22.148438 C 9.707031 21.964844 9.742188 21.777344 9.769531 21.585938 C 9.824219 21.601562 9.886719 21.601562 9.933594 21.601562 C 10.394531 21.613281 10.863281 21.636719 11.324219 21.65625 C 14.058594 21.792969 16.78125 21.921875 19.515625 22.046875 C 20.078125 22.082031 20.664062 22.101562 21.242188 22.136719 C 21.355469 22.148438 21.542969 22.15625 21.65625 22.203125 C 21.691406 22.21875 21.710938 22.222656 21.746094 22.238281 C 22.171875 22.4375 22.574219 22.65625 23 22.847656 C 23.273438 22.96875 23.519531 23.066406 23.8125 23.113281 C 24.085938 23.148438 24.441406 23.125 24.722656 23.125 C 26.210938 23.113281 27.710938 23.09375 29.203125 23.070312 C 35.808594 22.957031 42.421875 22.839844 49.027344 22.730469 C 49.878906 22.714844 50.738281 22.710938 51.601562 22.683594 C 52.09375 22.667969 52.597656 22.660156 53.105469 22.632812 C 53.589844 22.601562 54.273438 22.585938 54.519531 22.082031 C 54.570312 21.976562 54.589844 21.882812 54.601562 21.773438 C 54.683594 21.082031 54.765625 20.507812 54.972656 19.828125 C 55.261719 18.886719 55.753906 17.769531 56.339844 16.964844 C 56.859375 16.253906 57.457031 15.789062 58.269531 15.480469 C 59.117188 15.160156 60.074219 15.042969 60.984375 15.0625 C 61.976562 15.097656 62.980469 15.296875 63.9375 15.554688 C 64.855469 15.808594 65.757812 16.117188 66.660156 16.398438 C 67.488281 16.648438 68.363281 16.882812 69.226562 16.921875 C 70.085938 16.957031 70.859375 16.800781 71.660156 16.464844 C 72.570312 16.089844 73.4375 15.535156 74.246094 14.96875 C 75.210938 14.289062 76.121094 13.578125 77.117188 12.964844 C 78.1875 12.304688 79.417969 11.699219 80.601562 11.292969 C 81.597656 10.953125 82.472656 10.800781 83.535156 10.835938 C 84.628906 10.871094 85.8125 11.074219 86.859375 11.398438 C 87.808594 11.703125 88.730469 12.15625 89.527344 12.777344 C 90.269531 13.375 90.824219 14.078125 91.296875 14.90625 C 91.859375 15.871094 92.324219 16.976562 92.644531 18.046875 C 92.980469 19.160156 93.164062 20.253906 93.253906 21.417969 C 93.355469 22.578125 93.375 23.75 93.402344 24.910156 C 93.417969 25.398438 93.417969 25.875 93.417969 26.375 C 93.417969 26.683594 93.683594 26.9375 93.992188 26.9375 C 94.3125 26.9375 94.566406 26.683594 94.566406 26.375 C 94.53125 25.882812 94.53125 25.390625 94.519531 24.898438 Z M 94.519531 24.898438 " fill-opacity="1" fill-rule="evenodd"/></g><g clip-path="url(#c9db91d1cf)"><path fill="#000000" d="M 24.542969 45.5625 C 24.589844 45.5625 24.648438 45.554688 24.710938 45.539062 C 24.769531 45.523438 24.835938 45.503906 24.898438 45.476562 C 24.960938 45.449219 25.023438 45.417969 25.082031 45.382812 C 25.136719 45.347656 25.191406 45.308594 25.238281 45.265625 L 30.359375 40.664062 L 28.210938 40.664062 L 22.5625 45.265625 C 22.515625 45.308594 22.476562 45.347656 22.453125 45.382812 C 22.425781 45.417969 22.414062 45.449219 22.414062 45.476562 C 22.414062 45.503906 22.429688 45.523438 22.453125 45.539062 C 22.480469 45.554688 22.515625 45.5625 22.566406 45.5625 L 23.347656 45.5625 L 13.527344 53.890625 L 14.089844 53.890625 L 23.761719 45.5625 L 24.542969 45.5625 " fill-opacity="1" fill-rule="nonzero"/></g><g clip-path="url(#f704032ef4)"><path fill="#000000" d="M 29.128906 45.5625 C 29.179688 45.5625 29.238281 45.554688 29.292969 45.539062 C 29.351562 45.523438 29.414062 45.503906 29.46875 45.476562 C 29.527344 45.449219 29.585938 45.417969 29.636719 45.382812 C 29.6875 45.347656 29.730469 45.308594 29.769531 45.265625 L 34.003906 40.664062 L 31.902344 40.664062 L 27.152344 45.265625 C 27.113281 45.308594 27.082031 45.347656 27.0625 45.382812 C 27.046875 45.417969 27.039062 45.449219 27.042969 45.476562 C 27.050781 45.503906 27.066406 45.523438 27.09375 45.539062 C 27.125 45.554688 27.164062 45.5625 27.214844 45.5625 L 27.921875 45.5625 L 19.703125 53.890625 L 20.382812 53.890625 L 28.421875 45.5625 L 29.128906 45.5625 " fill-opacity="1" fill-rule="nonzero"/></g><g clip-path="url(#c1edf4520a)"><path fill="#000000" d="M 47.691406 45.5625 C 47.742188 45.5625 47.789062 45.554688 47.835938 45.539062 C 47.882812 45.523438 47.925781 45.503906 47.960938 45.476562 C 48 45.449219 48.03125 45.417969 48.050781 45.382812 C 48.074219 45.347656 48.089844 45.308594 48.097656 45.265625 L 48.742188 40.664062 L 46.636719 40.664062 L 45.480469 45.265625 C 45.472656 45.308594 45.472656 45.347656 45.480469 45.382812 C 45.492188 45.417969 45.511719 45.449219 45.535156 45.476562 C 45.5625 45.503906 45.597656 45.523438 45.636719 45.539062 C 45.675781 45.554688 45.722656 45.5625 45.773438 45.5625 L 46.480469 45.5625 L 44.761719 53.890625 L 45.441406 53.890625 L 46.984375 45.5625 L 47.691406 45.5625 " fill-opacity="1" fill-rule="nonzero"/></g><g clip-path="url(#d53ffabb94)"><path fill="#000000" d="M 36.453125 40.664062 L 26 53.890625 L 26.675781 53.890625 L 36.855469 40.664062 L 36.453125 40.664062 " fill-opacity="1" fill-rule="nonzero"/></g><g clip-path="url(#2e5fbde256)"><path fill="#000000" d="M 25.457031 40.664062 L 7.300781 53.890625 L 7.914062 53.890625 L 25.816406 40.664062 L 25.457031 40.664062 " fill-opacity="1" fill-rule="nonzero"/></g><g clip-path="url(#e25b15c004)"><path fill="#000000" d="M 38.453125 45.5625 C 38.503906 45.5625 38.558594 45.554688 38.609375 45.539062 C 38.660156 45.523438 38.710938 45.503906 38.757812 45.476562 C 38.804688 45.449219 38.851562 45.417969 38.886719 45.382812 C 38.925781 45.347656 38.953125 45.308594 38.976562 45.265625 L 41.40625 40.664062 L 39.304688 40.664062 L 36.359375 45.265625 C 36.335938 45.308594 36.320312 45.347656 36.316406 45.382812 C 36.3125 45.417969 36.316406 45.449219 36.332031 45.476562 C 36.351562 45.503906 36.375 45.523438 36.410156 45.539062 C 36.445312 45.554688 36.484375 45.5625 36.535156 45.5625 L 37.246094 45.5625 L 32.292969 53.890625 L 32.972656 53.890625 L 37.746094 45.5625 L 38.453125 45.5625 " fill-opacity="1" fill-rule="nonzero"/></g><g clip-path="url(#7fd72d0a20)"><path fill="#000000" d="M 51.191406 40.664062 L 51.054688 53.890625 L 51.714844 53.890625 L 51.578125 40.664062 L 51.191406 40.664062 " fill-opacity="1" fill-rule="nonzero"/></g><g clip-path="url(#d4dc7e0ebf)"><path fill="#000000" d="M 43.101562 45.5625 C 43.152344 45.5625 43.203125 45.554688 43.25 45.539062 C 43.300781 45.523438 43.347656 45.503906 43.386719 45.476562 C 43.429688 45.449219 43.46875 45.417969 43.5 45.382812 C 43.527344 45.347656 43.550781 45.308594 43.566406 45.265625 L 45.097656 40.664062 L 42.949219 40.664062 L 40.894531 45.265625 C 40.875 45.308594 40.867188 45.347656 40.871094 45.382812 C 40.871094 45.417969 40.886719 45.449219 40.90625 45.476562 C 40.925781 45.503906 40.957031 45.523438 40.996094 45.539062 C 41.03125 45.554688 41.074219 45.5625 41.125 45.5625 L 41.90625 45.5625 L 38.585938 53.890625 L 39.148438 53.890625 L 42.320312 45.5625 L 43.101562 45.5625 " fill-opacity="1" fill-rule="nonzero"/></g><g clip-path="url(#df822ebfeb)"><path fill="#000000" d="M 56.949219 45.5625 C 57 45.5625 57.046875 45.554688 57.085938 45.539062 C 57.125 45.523438 57.160156 45.503906 57.1875 45.476562 C 57.210938 45.449219 57.230469 45.417969 57.242188 45.382812 C 57.25 45.347656 57.25 45.308594 57.242188 45.265625 L 56.09375 40.664062 L 53.945312 40.664062 L 54.570312 45.265625 C 54.574219 45.308594 54.589844 45.347656 54.613281 45.382812 C 54.636719 45.417969 54.667969 45.449219 54.703125 45.476562 C 54.742188 45.503906 54.78125 45.523438 54.828125 45.539062 C 54.875 45.554688 54.925781 45.5625 54.976562 45.5625 L 55.753906 45.5625 L 57.285156 53.890625 L 57.84375 53.890625 L 56.171875 45.5625 L 56.949219 45.5625 " fill-opacity="1" fill-rule="nonzero"/></g><g clip-path="url(#a8c674fa95)"><path fill="#000000" d="M 61.539062 45.5625 C 61.589844 45.5625 61.632812 45.554688 61.671875 45.539062 C 61.707031 45.523438 61.738281 45.503906 61.757812 45.476562 C 61.78125 45.449219 61.792969 45.417969 61.796875 45.382812 C 61.796875 45.347656 61.792969 45.308594 61.773438 45.265625 L 59.738281 40.664062 L 57.636719 40.664062 L 59.160156 45.265625 C 59.171875 45.308594 59.195312 45.347656 59.226562 45.382812 C 59.253906 45.417969 59.292969 45.449219 59.332031 45.476562 C 59.375 45.503906 59.421875 45.523438 59.472656 45.539062 C 59.519531 45.554688 59.570312 45.5625 59.621094 45.5625 L 60.328125 45.5625 L 63.460938 53.890625 L 64.136719 53.890625 L 60.832031 45.5625 L 61.539062 45.5625 " fill-opacity="1" fill-rule="nonzero"/></g><g clip-path="url(#4f37808ece)"><path fill="#000000" d="M 80.097656 45.5625 C 80.148438 45.5625 80.1875 45.554688 80.210938 45.539062 C 80.238281 45.523438 80.25 45.503906 80.25 45.476562 C 80.25 45.449219 80.238281 45.417969 80.210938 45.382812 C 80.1875 45.347656 80.152344 45.308594 80.101562 45.265625 L 74.476562 40.664062 L 72.371094 40.664062 L 77.484375 45.265625 C 77.53125 45.308594 77.585938 45.347656 77.640625 45.382812 C 77.699219 45.417969 77.761719 45.449219 77.824219 45.476562 C 77.886719 45.503906 77.953125 45.523438 78.011719 45.539062 C 78.074219 45.554688 78.128906 45.5625 78.179688 45.5625 L 78.886719 45.5625 L 88.515625 53.890625 L 89.195312 53.890625 L 79.390625 45.5625 L 80.097656 45.5625 " fill-opacity="1" fill-rule="nonzero"/></g><g clip-path="url(#6d0264d3ec)"><path fill="#000000" d="M 62.1875 40.664062 L 69.753906 53.890625 L 70.433594 53.890625 L 62.585938 40.664062 L 62.1875 40.664062 " fill-opacity="1" fill-rule="nonzero"/></g><g clip-path="url(#e73f73078c)"><path fill="#000000" d="M 70.863281 45.5625 C 70.914062 45.5625 70.953125 45.554688 70.984375 45.539062 C 71.015625 45.523438 71.039062 45.503906 71.046875 45.476562 C 71.058594 45.449219 71.058594 45.417969 71.046875 45.382812 C 71.035156 45.347656 71.015625 45.308594 70.980469 45.265625 L 67.140625 40.664062 L 65.039062 40.664062 L 68.363281 45.265625 C 68.394531 45.308594 68.433594 45.347656 68.476562 45.382812 C 68.519531 45.417969 68.570312 45.449219 68.621094 45.476562 C 68.675781 45.503906 68.730469 45.523438 68.785156 45.539062 C 68.839844 45.554688 68.894531 45.5625 68.945312 45.5625 L 69.652344 45.5625 L 76.046875 53.890625 L 76.726562 53.890625 L 70.15625 45.5625 L 70.863281 45.5625 " fill-opacity="1" fill-rule="nonzero"/></g><g clip-path="url(#fbfc2eac43)"><path fill="#000000" d="M 77.3125 40.664062 L 76.925781 40.664062 L 94.8125 53.890625 L 95.46875 53.890625 L 77.3125 40.664062 " fill-opacity="1" fill-rule="nonzero"/></g><g clip-path="url(#46f32429be)"><path fill="#000000" d="M 75.507812 45.5625 C 75.558594 45.5625 75.597656 45.554688 75.625 45.539062 C 75.65625 45.523438 75.671875 45.503906 75.675781 45.476562 C 75.683594 45.449219 75.675781 45.417969 75.660156 45.382812 C 75.640625 45.347656 75.613281 45.308594 75.570312 45.265625 L 70.832031 40.664062 L 68.683594 40.664062 L 72.898438 45.265625 C 72.933594 45.308594 72.980469 45.347656 73.03125 45.382812 C 73.082031 45.417969 73.136719 45.449219 73.195312 45.476562 C 73.253906 45.503906 73.3125 45.523438 73.371094 45.539062 C 73.429688 45.554688 73.484375 45.5625 73.535156 45.5625 L 74.3125 45.5625 L 82.339844 53.890625 L 82.902344 53.890625 L 74.730469 45.5625 L 75.507812 45.5625 " fill-opacity="1" fill-rule="nonzero"/></g><g clip-path="url(#2674c9004b)"><g clip-path="url(#2bbb09a5f5)"><g clip-path="url(#6d5867dedc)"><g clip-path="url(#752cb40e92)"><g clip-path="url(#87e994c049)"><path fill="#000000" d="M 99.105469 44.953125 C 98.628906 44.84375 98.703125 44.855469 98.667969 44.867188 C 98.714844 45.003906 99.035156 45.113281 99.105469 44.953125 Z M 99.308594 43.808594 C 98.890625 43.746094 99.054688 43.777344 98.675781 43.679688 C 98.644531 43.714844 98.628906 43.75 98.660156 43.804688 C 98.890625 43.878906 99.351562 44.058594 99.308594 43.808594 Z M 102.273438 46.585938 C 102.089844 46.484375 102.289062 46.609375 101.621094 46.59375 C 101.53125 46.59375 101.542969 46.675781 101.589844 46.683594 C 101.839844 46.734375 102.210938 46.832031 102.273438 46.585938 Z M 101.5 45.410156 C 101.511719 45.570312 101.460938 45.519531 101.753906 45.617188 C 101.957031 45.601562 102.238281 45.605469 102.203125 45.40625 C 102.085938 45.347656 102.101562 45.46875 101.5 45.410156 Z M 98.816406 43.503906 C 99.519531 43.78125 99.457031 43.445312 99.367188 43.441406 C 98.878906 43.410156 98.589844 43.140625 98.816406 43.503906 Z M 99.203125 44.460938 C 98.828125 44.542969 98.671875 44.367188 98.46875 44.425781 C 98.535156 44.609375 98.949219 44.671875 99.078125 44.671875 C 99.203125 44.671875 99.191406 44.578125 99.203125 44.460938 Z M 101.601562 46.851562 C 101.464844 47.128906 101.957031 47.152344 102.269531 47.03125 C 102.320312 46.761719 102.246094 46.992188 101.601562 46.851562 Z M 101.96875 41.03125 C 101.253906 41.070312 101.386719 40.992188 101.246094 41.042969 C 101.09375 41.261719 101.667969 41.304688 101.902344 41.199219 C 101.976562 41.164062 101.960938 41.109375 101.96875 41.03125 Z M 102.171875 45.953125 C 102.386719 45.640625 101.964844 45.851562 101.789062 45.84375 C 101.699219 45.820312 101.617188 45.761719 101.507812 45.816406 C 101.503906 45.875 101.496094 45.933594 101.5625 45.988281 C 101.714844 46.050781 102.023438 46.039062 102.171875 45.953125 Z M 100.203125 39.074219 C 99.730469 38.914062 99.84375 38.941406 99.75 38.957031 C 99.683594 39.105469 99.808594 39.160156 99.957031 39.234375 C 100.453125 39.296875 100.523438 39.136719 100.433594 39.097656 C 100.355469 39.0625 100.277344 39.085938 100.203125 39.074219 Z M 102.210938 46.3125 C 102.339844 46.105469 102.101562 46.152344 101.878906 46.195312 C 101.800781 46.214844 101.351562 46.109375 101.5625 46.359375 C 101.652344 46.386719 101.914062 46.503906 102.210938 46.3125 Z M 101.238281 37.867188 C 101.472656 37.953125 101.964844 37.886719 101.753906 37.535156 C 101.332031 37.605469 101.113281 37.566406 101.238281 37.867188 Z M 101.652344 47.300781 C 101.523438 47.433594 101.660156 47.660156 102.230469 47.511719 C 102.34375 47.484375 102.324219 47.359375 102.324219 47.238281 C 102.199219 47.203125 102.304688 47.261719 101.652344 47.300781 Z M 98.292969 45.085938 C 98.238281 45.390625 99.027344 45.640625 99.027344 45.375 C 99.023438 45.238281 99.003906 45.261719 98.730469 45.210938 C 98.503906 45.125 98.40625 44.933594 98.292969 45.085938 Z M 99.183594 41.507812 C 99.105469 41.652344 99.15625 41.757812 99.269531 41.800781 C 99.558594 41.90625 99.921875 41.945312 99.832031 41.597656 C 99.734375 41.539062 99.628906 41.59375 99.523438 41.582031 C 99.40625 41.570312 99.300781 41.503906 99.183594 41.507812 Z M 100.625 38.644531 C 100.65625 38.570312 100.617188 38.546875 100.585938 38.511719 C 99.949219 38.546875 99.816406 38.324219 99.839844 38.511719 C 99.859375 38.679688 100.464844 39.015625 100.625 38.644531 Z M 99.007812 42.28125 C 99.101562 42.4375 99.472656 42.472656 99.675781 42.421875 C 99.707031 42.191406 99.8125 42.175781 99.378906 42.128906 C 99.324219 42.121094 98.980469 41.894531 99.007812 42.28125 Z M 101.460938 43.609375 C 101.164062 43.8125 101.808594 44.078125 102.101562 43.867188 C 102.054688 43.445312 102.144531 43.601562 101.460938 43.609375 Z M 99.398438 40.410156 C 99.535156 40.503906 100.28125 40.703125 100.164062 40.261719 C 100.078125 40.199219 99.980469 40.246094 99.847656 40.222656 C 99.488281 40.109375 99.355469 40.007812 99.398438 40.410156 Z M 101.835938 40.8125 C 101.992188 40.785156 102.003906 40.527344 101.878906 40.457031 C 101.175781 40.5625 101.332031 40.457031 101.160156 40.507812 C 101.101562 40.882812 101.460938 40.878906 101.835938 40.8125 Z M 102.082031 44.136719 C 101.601562 44.234375 101.46875 44.039062 101.425781 44.125 C 101.425781 44.175781 101.402344 44.4375 101.476562 44.46875 C 101.664062 44.546875 101.925781 44.597656 102.097656 44.484375 C 102.113281 44.378906 102.144531 44.261719 102.082031 44.136719 Z M 100.34375 35.703125 C 100.523438 36.050781 101.191406 36.148438 101.160156 35.683594 C 100.292969 35.542969 100.421875 35.292969 100.34375 35.703125 Z M 99.546875 42.75 C 98.953125 42.640625 99.046875 42.578125 98.929688 42.609375 C 98.585938 43.105469 99.765625 43.445312 99.546875 42.75 Z M 100.710938 37.921875 C 100.328125 37.957031 100.328125 37.957031 99.976562 37.824219 C 99.699219 38.535156 100.992188 38.34375 100.710938 37.921875 Z M 101.660156 42.285156 C 101.542969 42.289062 101.429688 42.238281 101.304688 42.269531 C 101.316406 42.625 101.300781 42.558594 101.363281 42.648438 C 101.507812 42.710938 101.855469 42.726562 102.03125 42.546875 C 102.089844 42.058594 101.949219 42.277344 101.660156 42.285156 Z M 102.121094 45.148438 C 102.171875 45.0625 102.164062 45.167969 102.148438 44.753906 C 101.957031 44.71875 102.117188 44.777344 101.484375 44.726562 C 101.433594 44.882812 101.449219 45.023438 101.5 45.167969 C 101.710938 45.246094 101.917969 45.222656 102.121094 45.148438 Z M 101.378906 43.328125 C 101.566406 43.445312 101.816406 43.394531 102.027344 43.324219 C 102.070312 43.230469 102.101562 43.277344 102.050781 42.9375 C 102.042969 42.863281 101.945312 42.882812 101.691406 42.890625 C 101.386719 42.898438 101.269531 42.808594 101.378906 43.328125 Z M 101.140625 39.796875 C 101.085938 40.210938 101.085938 40.363281 101.777344 40.285156 C 101.976562 40.261719 101.929688 40.046875 101.917969 39.847656 C 101.785156 39.773438 101.828125 39.921875 101.140625 39.796875 Z M 99.640625 41.328125 C 99.855469 41.230469 100.070312 41.25 100.011719 40.863281 C 99.542969 40.863281 99.492188 40.734375 99.28125 40.789062 C 99.105469 41.175781 99.265625 41.300781 99.640625 41.328125 Z M 99.601562 39.449219 C 99.550781 39.660156 99.46875 39.863281 99.691406 39.917969 C 99.898438 39.964844 100.160156 40.019531 100.296875 39.851562 C 100.339844 39.78125 100.433594 39.484375 100.273438 39.496094 C 99.792969 39.542969 99.761719 39.304688 99.601562 39.449219 Z M 100.613281 36.738281 C 100.75 36.734375 100.882812 36.738281 101.007812 36.644531 C 101.023438 36.519531 101.085938 36.394531 101.035156 36.261719 C 100.945312 36.207031 100.847656 36.257812 100.757812 36.238281 C 100.246094 36.097656 100.207031 35.90625 100.203125 36.480469 C 100.351562 36.597656 100.140625 36.582031 100.613281 36.738281 Z M 101.824219 38.101562 C 101.734375 37.996094 101.695312 38.113281 101.199219 38.09375 C 101.09375 38.246094 101.082031 38.410156 101.128906 38.582031 C 101.242188 38.644531 101.273438 38.710938 101.582031 38.703125 C 101.945312 38.695312 101.832031 38.511719 101.824219 38.101562 Z M 102.011719 41.894531 C 101.96875 41.171875 102.046875 41.527344 101.550781 41.476562 C 101.398438 41.464844 101.234375 41.421875 101.238281 41.507812 C 101.242188 41.679688 101.253906 41.847656 101.308594 42.019531 C 101.578125 42.09375 101.78125 42.082031 102.011719 41.894531 Z M 100.132812 36.863281 C 99.652344 37.949219 101.160156 37.832031 100.890625 37.054688 C 100.820312 36.992188 100.839844 37.042969 100.433594 36.992188 C 100.296875 36.945312 100.238281 36.855469 100.132812 36.863281 Z M 101.792969 37.082031 C 101.785156 36.632812 101.722656 35.046875 101.632812 35.492188 C 101.265625 37.347656 101.164062 37.382812 101.667969 37.222656 C 101.71875 37.207031 101.753906 37.164062 101.792969 37.082031 Z M 101.90625 39.5 C 101.863281 38.695312 101.949219 38.925781 101.472656 38.945312 C 101.121094 38.890625 101.214844 38.898438 101.125 38.925781 C 101.097656 39.058594 101.054688 39.421875 101.167969 39.496094 C 101.417969 39.65625 101.753906 39.722656 101.90625 39.5 Z M 99.882812 20.230469 C 100.195312 22.089844 100.039062 22.507812 100.554688 22.28125 C 100.859375 22.144531 100.765625 22.183594 100.914062 21.75 C 100.78125 20.746094 100.800781 19.453125 100.035156 19.84375 C 99.898438 20.042969 99.9375 19.957031 99.882812 20.230469 Z M 104.398438 20.554688 C 104.609375 19.925781 104.878906 18.960938 104.816406 18.445312 C 104.605469 18.207031 104.359375 18.226562 104.121094 18.429688 C 103.960938 18.855469 103.328125 20.492188 103.730469 20.699219 C 104.042969 20.765625 103.957031 20.863281 104.398438 20.554688 Z M 97.738281 50.460938 C 98.128906 49.199219 97.628906 50.511719 98.917969 45.832031 C 98.929688 45.800781 98.898438 45.761719 98.886719 45.726562 C 98.171875 45.535156 98.316406 45.507812 98.179688 45.523438 C 97.96875 47.335938 96.359375 50.988281 97.738281 50.460938 Z M 102.433594 49.105469 C 102.339844 47.296875 102.46875 47.792969 101.953125 47.796875 C 101.667969 47.796875 101.605469 47.613281 101.644531 48.144531 C 101.730469 49.3125 101.664062 52.820312 102.269531 52.792969 C 102.6875 52.773438 102.628906 52.710938 102.433594 49.105469 Z M 101.195312 35.34375 C 101.265625 35.296875 102.011719 31.535156 103.117188 27.136719 C 104.234375 22.703125 103.882812 24.066406 104.160156 21.148438 C 104.164062 21.109375 104.0625 21.050781 103.917969 21.136719 C 103.832031 21.191406 103.441406 22.496094 103.390625 22.640625 C 102.652344 24.691406 102.691406 25.148438 102.503906 26.085938 C 101.113281 33.007812 100.585938 34.339844 100.519531 35.007812 C 100.496094 35.214844 100.988281 35.335938 101.195312 35.34375 Z M 101.492188 29.191406 C 101.085938 25.703125 101.386719 24.417969 100.558594 22.691406 C 100.339844 22.664062 100.304688 22.746094 100.300781 22.84375 C 100.296875 23.132812 100.207031 23.789062 100.179688 24.488281 C 100.113281 26.375 100.652344 30.039062 100.644531 31.054688 C 100.640625 31.421875 100.621094 32.164062 100.714844 32.238281 C 100.6875 32.277344 100.664062 32.316406 100.679688 32.371094 C 100.921875 32.234375 101.488281 29.199219 101.492188 29.191406 Z M 99.078125 44.203125 C 99.128906 44.257812 99.167969 44.191406 99.140625 44.183594 C 99.113281 44.171875 99.09375 44.183594 99.078125 44.210938 C 98.9375 44.113281 99.046875 44.171875 98.792969 44.09375 C 98.71875 44.070312 98.660156 44.007812 98.574219 44.011719 C 98.511719 44.175781 98.722656 44.207031 98.902344 44.25 C 99.023438 44.28125 99.058594 44.21875 99.078125 44.203125 Z M 101.773438 27.6875 C 102.023438 27.28125 101.941406 25.566406 103.023438 22.226562 C 103.476562 20.835938 103.386719 21.039062 103.238281 20.742188 C 103.15625 20.476562 103.261719 19.855469 103.375 19.605469 C 103.476562 19.378906 103.535156 17.816406 104.4375 17.898438 C 105.433594 17.992188 105.242188 18.605469 104.875 20.132812 C 104.699219 20.871094 104.542969 20.699219 104.453125 20.933594 C 104.101562 27.695312 101.929688 31.425781 102.078125 34.6875 C 102.960938 54.191406 103.285156 52.792969 102.355469 53.109375 C 101.203125 53.140625 101.535156 51.8125 101.261719 47.78125 C 101.121094 45.671875 101.183594 47.789062 100.757812 40.886719 C 100.742188 40.652344 100.765625 40.4375 100.738281 40.242188 C 100.644531 39.527344 98.402344 49.574219 98.136719 50.328125 C 98.125 50.5 98.007812 50.6875 97.789062 50.789062 C 97.578125 50.882812 97.46875 50.839844 97.160156 50.78125 C 96.003906 50.25 98.066406 46.257812 99.828125 36.195312 C 100.03125 35.023438 100.535156 34.664062 100.191406 30.46875 C 99.640625 23.757812 99.640625 28.027344 99.933594 22.605469 C 99.808594 22.40625 99.710938 22.324219 99.699219 21.914062 C 99.691406 21.683594 99.519531 20.414062 99.527344 20.027344 C 99.777344 19.398438 100.328125 19.292969 100.753906 19.585938 C 101.097656 19.964844 100.976562 20.511719 101.085938 21.117188 C 101.058594 21.96875 101.351562 21.457031 100.914062 22.542969 C 100.910156 22.636719 100.925781 22.71875 100.964844 22.789062 C 101.847656 24.394531 101.472656 27.472656 101.78125 27.6875 C 101.644531 27.917969 101.882812 27.765625 101.773438 27.6875 " fill-opacity="1" fill-rule="nonzero"/></g></g></g></g></g><g clip-path="url(#61ceba3f5d)"><path fill="#048aa2" d="M 86.75 2.371094 C 87.757812 2.363281 90.453125 2.382812 92.875 4.285156 C 94.71875 5.730469 95.457031 7.523438 95.78125 8.34375 C 97.292969 12.136719 96.09375 15.613281 95.707031 16.6875 C 95.246094 17.953125 94.5625 19.847656 92.71875 21.359375 C 89.632812 23.886719 85.160156 23.816406 82.003906 22.277344 C 81.488281 22.027344 79.480469 20.992188 77.945312 18.679688 C 77.664062 18.253906 76.273438 16.09375 76.183594 12.9375 C 76.152344 11.875 76.070312 8.90625 78.097656 6.351562 C 79.390625 4.726562 80.957031 4.003906 82.003906 3.519531 C 82.851562 3.125 84.496094 2.386719 86.75 2.371094 Z M 86.75 2.371094 " fill-opacity="1" fill-rule="nonzero"/></g><g fill="#ffffff" fill-opacity="1"><g transform="translate(79.669322, 15.132789)"><g><path d="M 2.953125 0.828125 C 2.816406 0.796875 2.6875 0.742188 2.5625 0.671875 C 2.445312 0.609375 2.289062 0.53125 2.09375 0.4375 C 1.882812 0.300781 1.707031 0.195312 1.5625 0.125 C 1.414062 0.0507812 1.257812 0 1.09375 -0.03125 C 0.738281 -0.113281 0.367188 -0.0976562 -0.015625 0.015625 L -0.0625 0 C -0.0703125 -0.164062 -0.0546875 -0.320312 -0.015625 -0.46875 C 0.046875 -0.738281 0.171875 -0.984375 0.359375 -1.203125 C 0.554688 -1.429688 0.78125 -1.628906 1.03125 -1.796875 C 1.28125 -1.960938 1.625 -2.175781 2.0625 -2.4375 C 2.507812 -2.695312 2.867188 -2.921875 3.140625 -3.109375 C 3.421875 -3.304688 3.675781 -3.539062 3.90625 -3.8125 C 4.132812 -4.082031 4.285156 -4.378906 4.359375 -4.703125 C 4.441406 -5.066406 4.445312 -5.363281 4.375 -5.59375 C 4.300781 -5.832031 4.148438 -5.976562 3.921875 -6.03125 C 3.691406 -6.082031 3.488281 -6.050781 3.3125 -5.9375 C 3.132812 -5.832031 3.019531 -5.675781 2.96875 -5.46875 C 2.914062 -5.238281 2.914062 -5.03125 2.96875 -4.84375 C 3.019531 -4.65625 3.097656 -4.507812 3.203125 -4.40625 L 3.1875 -4.359375 C 3.070312 -4.285156 2.941406 -4.234375 2.796875 -4.203125 C 2.660156 -4.179688 2.535156 -4.1875 2.421875 -4.21875 C 2.210938 -4.257812 2.066406 -4.382812 1.984375 -4.59375 C 1.898438 -4.800781 1.890625 -5.054688 1.953125 -5.359375 C 2.015625 -5.628906 2.148438 -5.867188 2.359375 -6.078125 C 2.578125 -6.285156 2.851562 -6.429688 3.1875 -6.515625 C 3.53125 -6.609375 3.910156 -6.609375 4.328125 -6.515625 C 4.878906 -6.390625 5.285156 -6.128906 5.546875 -5.734375 C 5.816406 -5.347656 5.890625 -4.882812 5.765625 -4.34375 C 5.679688 -4 5.519531 -3.703125 5.28125 -3.453125 C 5.039062 -3.203125 4.765625 -2.988281 4.453125 -2.8125 C 4.140625 -2.644531 3.734375 -2.453125 3.234375 -2.234375 C 2.753906 -2.023438 2.363281 -1.832031 2.0625 -1.65625 C 1.757812 -1.488281 1.507812 -1.296875 1.3125 -1.078125 C 1.507812 -1.085938 1.710938 -1.066406 1.921875 -1.015625 C 2.078125 -0.972656 2.234375 -0.921875 2.390625 -0.859375 C 2.546875 -0.796875 2.695312 -0.734375 2.84375 -0.671875 C 2.851562 -0.648438 2.925781 -0.609375 3.0625 -0.546875 C 3.195312 -0.484375 3.316406 -0.4375 3.421875 -0.40625 C 3.597656 -0.363281 3.769531 -0.363281 3.9375 -0.40625 C 4.101562 -0.457031 4.289062 -0.546875 4.5 -0.671875 L 4.53125 -0.640625 C 4.539062 -0.398438 4.53125 -0.195312 4.5 -0.03125 C 4.445312 0.1875 4.34375 0.367188 4.1875 0.515625 C 4.03125 0.660156 3.835938 0.757812 3.609375 0.8125 C 3.390625 0.875 3.171875 0.878906 2.953125 0.828125 Z M 2.953125 0.828125 "/></g></g></g><g fill="#ffffff" fill-opacity="1"><g transform="translate(84.352184, 16.239215)"><g><path d="M 1.03125 0.296875 C 0.820312 0.242188 0.660156 0.128906 0.546875 -0.046875 C 0.429688 -0.234375 0.398438 -0.4375 0.453125 -0.65625 C 0.503906 -0.863281 0.617188 -1.019531 0.796875 -1.125 C 0.984375 -1.238281 1.179688 -1.269531 1.390625 -1.21875 C 1.609375 -1.164062 1.773438 -1.050781 1.890625 -0.875 C 2.003906 -0.695312 2.035156 -0.503906 1.984375 -0.296875 C 1.929688 -0.078125 1.8125 0.0859375 1.625 0.203125 C 1.445312 0.316406 1.25 0.347656 1.03125 0.296875 Z M 1.03125 0.296875 "/></g></g></g><g fill="#ffffff" fill-opacity="1"><g transform="translate(86.855421, 16.830659)"><g><path d="M 2.109375 0.59375 C 1.410156 0.425781 0.960938 0.0976562 0.765625 -0.390625 C 0.578125 -0.890625 0.566406 -1.503906 0.734375 -2.234375 C 0.941406 -3.117188 1.269531 -3.898438 1.71875 -4.578125 C 2.164062 -5.265625 2.691406 -5.769531 3.296875 -6.09375 C 3.898438 -6.425781 4.515625 -6.519531 5.140625 -6.375 C 5.742188 -6.226562 6.148438 -5.914062 6.359375 -5.4375 C 6.578125 -4.957031 6.601562 -4.359375 6.4375 -3.640625 C 6.269531 -2.941406 5.984375 -2.234375 5.578125 -1.515625 C 5.179688 -0.796875 4.679688 -0.222656 4.078125 0.203125 C 3.484375 0.640625 2.828125 0.769531 2.109375 0.59375 Z M 2.390625 -0.09375 C 2.679688 -0.0195312 3.015625 -0.175781 3.390625 -0.5625 C 3.773438 -0.957031 4.132812 -1.492188 4.46875 -2.171875 C 4.800781 -2.859375 5.050781 -3.566406 5.21875 -4.296875 C 5.3125 -4.703125 5.335938 -5.046875 5.296875 -5.328125 C 5.265625 -5.609375 5.160156 -5.769531 4.984375 -5.8125 C 4.703125 -5.882812 4.363281 -5.722656 3.96875 -5.328125 C 3.570312 -4.929688 3.203125 -4.394531 2.859375 -3.71875 C 2.515625 -3.050781 2.257812 -2.367188 2.09375 -1.671875 C 1.863281 -0.722656 1.960938 -0.195312 2.390625 -0.09375 Z M 2.390625 -0.09375 "/></g></g></g></svg>